<?xml version="1.0" encoding="UTF-8" standalone="no"?>
<!-- Created with Inkscape (http://www.inkscape.org/) -->

<svg
   xmlns:osb="http://www.openswatchbook.org/uri/2009/osb"
   xmlns:dc="http://purl.org/dc/elements/1.1/"
   xmlns:cc="http://creativecommons.org/ns#"
   xmlns:rdf="http://www.w3.org/1999/02/22-rdf-syntax-ns#"
   xmlns:svg="http://www.w3.org/2000/svg"
   xmlns="http://www.w3.org/2000/svg"
   xmlns:sodipodi="http://sodipodi.sourceforge.net/DTD/sodipodi-0.dtd"
   xmlns:inkscape="http://www.inkscape.org/namespaces/inkscape"
   width="340.15747"
   height="340.15747"
   viewBox="0 0 90 90"
   version="1.1"
   id="svg8"
   inkscape:version="0.92.4 (5da689c313, 2019-01-14)"
   sodipodi:docname="icon40 - NEW4.svg">
  <defs
     id="defs2">
    <linearGradient
       id="linearGradient2296"
       osb:paint="solid">
      <stop
         style="stop-color:#b3b3b3;stop-opacity:1;"
         offset="0"
         id="stop2294" />
    </linearGradient>
  </defs>
  <sodipodi:namedview
     id="base"
     pagecolor="#323232"
     bordercolor="#666666"
     borderopacity="1.0"
     inkscape:pageopacity="0"
     inkscape:pageshadow="2"
     inkscape:zoom="1"
     inkscape:cx="255.5646"
     inkscape:cy="155.75197"
     inkscape:document-units="mm"
     inkscape:current-layer="layer3"
     showgrid="false"
     units="px"
     inkscape:snap-bbox="true"
     inkscape:bbox-nodes="true"
     inkscape:bbox-paths="true"
     inkscape:snap-bbox-edge-midpoints="false"
     inkscape:snap-bbox-midpoints="false"
     inkscape:object-paths="true"
     inkscape:snap-intersection-paths="true"
     inkscape:snap-page="false"
     inkscape:object-nodes="true"
     showguides="true"
     inkscape:guide-bbox="true"
     inkscape:window-width="1600"
     inkscape:window-height="837"
     inkscape:window-x="-8"
     inkscape:window-y="-8"
     inkscape:window-maximized="1"
     inkscape:snap-object-midpoints="false"
     inkscape:snap-others="true"
     inkscape:snap-smooth-nodes="false"
     inkscape:snap-midpoints="false"
     inkscape:snap-center="true"
     inkscape:snap-nodes="true"
     inkscape:snap-grids="false">
    <sodipodi:guide
       position="45.000001,45.000001"
       orientation="0,1"
       id="guide822"
       inkscape:locked="false"
       inkscape:label=""
       inkscape:color="rgb(0,0,255)" />
    <sodipodi:guide
       position="45.000001,45.000001"
       orientation="1,0"
       id="guide824"
       inkscape:locked="false"
       inkscape:label=""
       inkscape:color="rgb(0,0,255)" />
  </sodipodi:namedview>
  <metadata
     id="metadata5">
    <rdf:RDF>
      <cc:Work
         rdf:about="">
        <dc:format>image/svg+xml</dc:format>
        <dc:type
           rdf:resource="http://purl.org/dc/dcmitype/StillImage" />
        <dc:title></dc:title>
      </cc:Work>
    </rdf:RDF>
  </metadata>
  <g
     inkscape:groupmode="layer"
     id="layer3"
     inkscape:label="校徽"
     style="display:inline">
    <path
       style="display:inline;opacity:1;fill:#fc0314;fill-opacity:1;stroke:none;stroke-width:22.69397163;stroke-miterlimit:4;stroke-dasharray:none;stroke-opacity:1"
       d="m 170.07812,54.802734 a 115.27559,115.27559 0 0 0 -9.44726,0.445313 V 81.796875 A 88.818897,88.818897 0 0 0 82.976562,153.08789 h 19.367188 a 69.921259,69.921259 0 0 1 58.28711,-52.24219 v 7.66992 a 62.362204,62.362204 0 0 0 -52.14844,52.13086 H 74.164062 C 77.805844,123.75222 102.2872,92.217389 137.12695,79.542969 L 130.70117,61.890625 C 85.189461,78.431976 54.867484,121.65367 54.802734,170.07812 c 0.0284,3.16012 0.186735,6.31774 0.47461,9.46485 h 53.240236 a 62.362204,62.362204 0 0 0 1.625,7.55859 H 56.212891 c 8.42272,56.40945 56.830489,98.17951 113.865229,98.25196 57.05254,-0.0493 105.48674,-41.82494 113.91211,-98.25196 h -53.93554 a 62.362204,62.362204 0 0 0 1.61719,-7.55859 h 53.23437 c 0.27875,-3.14749 0.42796,-6.3051 0.44727,-9.46485 -0.0435,-48.43691 -30.36181,-91.680232 -75.88282,-108.232417 l -6.45703,17.744141 c 34.78969,12.695556 59.22787,44.202506 62.8711,81.056636 h -34.24024 a 62.362204,62.362204 0 0 0 -52.11719,-52.1621 v -7.59571 a 69.921259,69.921259 0 0 1 58.3086,52.19922 h 19.39062 A 88.818897,88.818897 0 0 0 179.52734,81.855469 V 55.275391 a 115.27559,115.27559 0 0 0 -9.44922,-0.472657 z m 9.44922,72.884766 a 43.464566,43.464566 0 0 1 32.92383,32.95898 h -32.92383 z m -18.89648,0.0215 v 32.9375 h -32.94727 a 43.464566,43.464566 0 0 1 32.94727,-32.9375 z m -32.91797,51.83399 h 32.91797 v 32.92578 a 43.464566,43.464566 0 0 1 -32.91797,-32.92578 z m 51.81445,0 h 32.9375 a 43.464566,43.464566 0 0 1 -32.9375,32.9043 z M 80.738281,206 h 38.410159 a 62.362204,62.362204 0 0 0 7.07031,8.37109 l -15.63477,21.51953 a 88.818895,88.818895 0 0 0 15.27344,11.12891 L 141.5,225.49023 a 62.362204,62.362204 0 0 0 19.13086,6.1836 v 26.61719 a 88.818896,88.818896 0 0 0 9.44726,0.60742 88.818896,88.818896 0 0 0 9.44922,-0.53125 v -26.72266 a 62.362204,62.362204 0 0 0 19.10743,-6.1875 l 15.64453,21.5332 a 88.818895,88.818895 0 0 0 15.29297,-11.10156 L 213.92773,214.35352 A 62.362204,62.362204 0 0 0 220.96289,206 H 259.375 c -14.66768,36.4635 -50.00755,60.36759 -89.31055,60.41016 C 130.75575,266.37396 95.40809,242.46878 80.738281,206 Z"
       id="path822"
       inkscape:connector-curvature="0"
       transform="scale(0.26458333)" />
    <path
       style="display:inline;fill:#fbd454;fill-opacity:1;stroke:#000000;stroke-width:0;stroke-linecap:butt;stroke-linejoin:miter;stroke-miterlimit:4;stroke-dasharray:none;stroke-opacity:1"
       d="m 31.345669,3.7700845 c 0.269415,0.0065 0.54347,0.03165 0.82114,0.07648 0.411062,1.729268 0.0016,3.47514 -0.997355,4.811592 a 38.999999,38.999999 0 0 1 2.340425,-0.828373 c 1.852805,-3.788909 7.309797,-4.444338 9.918774,-0.784448 -1.185521,4.3615025 -6.550806,5.6699765 -9.608717,2.716113 a 36.999997,36.999997 0 0 0 -1.663464,0.6102995 c 1.500134,0.379312 2.837013,1.353602 3.642672,2.794662 -2.466666,3.125281 -7.084103,2.83519 -9.247497,-0.176734 a 36.999997,36.999997 0 0 0 -2.954342,1.888774 c 1.557655,-0.03043 3.114182,0.564033 4.273126,1.755448 -1.574064,3.657976 -6.110689,4.572281 -8.979815,2.221053 a 36.999997,36.999997 0 0 0 -2.346109,2.585372 c 1.4922,-0.426262 3.142227,-0.252812 4.564579,0.594796 -0.572534,3.932897 -4.702368,5.990054 -8.078579,4.478796 a 36.999997,36.999997 0 0 0 -1.596284,3.0825 c 1.327243,-0.788061 2.957499,-1.042495 4.542359,-0.594277 0.466304,3.959125 -3.013001,7.022089 -6.6776254,6.412011 a 36.999997,36.999997 0 0 0 -0.760162,3.449402 c 1.08113,-1.136108 2.6101374,-1.826102 4.2829404,-1.80299 1.6651,4.180533 -1.820229,8.562623 -6.2683464,7.881172 -4.448102,-0.68145 -6.4614969,-5.906486 -3.618903,-9.395293 1.683519,0.502791 2.979039,1.708748 3.644222,3.217376 a 38.999999,38.999999 0 0 1 0.873848,-3.98167 c -3.726878,-1.996498 -4.152204,-7.261896 -0.634584,-9.801469 1.511824,0.931117 2.456026,2.453272 2.695958,4.102592 a 38.999999,38.999999 0 0 1 1.8779214,-3.660242 c -3.0974624,-2.890846 -2.1482144,-8.098233 1.912026,-9.642823 1.221248,1.292722 1.739723,3.010802 1.542024,4.668449 a 38.999999,38.999999 0 0 1 2.767274,-3.047359 c -2.254498,-3.595178 0.0109,-8.3879225 4.336686,-8.8294355 0.834919,1.5459855 0.898234,3.3147645 0.301791,4.8519005 A 38.999999,38.999999 0 0 1 25.679351,11.20529 C 24.551974,7.4275995 27.46641,3.6768165 31.345669,3.7700845 Z"
       id="path1067-9-7-8"
       inkscape:connector-curvature="0"
       inkscape:transform-center-x="22.480283"
       inkscape:transform-center-y="-20.621879" />
    <path
       style="display:inline;fill:#fbd454;fill-opacity:1;stroke:#000000;stroke-width:0;stroke-linecap:butt;stroke-linejoin:miter;stroke-miterlimit:4;stroke-dasharray:none;stroke-opacity:1"
       d="m 58.657919,3.7579095 c -0.269415,0.0065 -0.54347,0.03165 -0.82114,0.07648 -0.411062,1.729268 -0.0016,3.475141 0.997355,4.811593 a 38.999999,38.999999 0 0 0 -2.340425,-0.828374 c -1.852806,-3.788908 -7.309797,-4.444338 -9.918774,-0.784448 1.185521,4.3615015 6.550806,5.6699755 9.608717,2.716113 a 36.999997,36.999997 0 0 1 1.663464,0.6102985 c -1.500134,0.379313 -2.837013,1.353602 -3.642672,2.794662 2.466666,3.125282 7.084108,2.83519 9.247498,-0.176734 a 36.999997,36.999997 0 0 1 2.95434,1.888774 c -1.55765,-0.03043 -3.11418,0.564034 -4.27312,1.755449 1.57406,3.657976 6.11069,4.572281 8.97981,2.221053 a 36.999997,36.999997 0 0 1 2.34611,2.585371 c -1.4922,-0.426262 -3.14223,-0.252812 -4.56458,0.594796 0.57254,3.932898 4.70237,5.990054 8.07858,4.478796 a 36.999997,36.999997 0 0 1 1.59628,3.082499 c -1.32724,-0.788062 -2.9575,-1.042495 -4.54236,-0.594278 -0.4663,3.959125 3.01301,7.02209 6.67763,6.412011 a 36.999997,36.999997 0 0 1 0.76016,3.449402 c -1.08113,-1.136107 -2.61013,-1.826101 -4.28294,-1.802989 -1.6651,4.180533 1.82023,8.562623 6.26835,7.881172 4.4481,-0.68145 6.46149,-5.906487 3.6189,-9.395293 -1.68352,0.50279 -2.97904,1.708748 -3.64422,3.217376 a 38.999999,38.999999 0 0 0 -0.87385,-3.98167 c 3.72688,-1.996498 4.15221,-7.261895 0.63459,-9.801469 -1.51183,0.931117 -2.45603,2.453272 -2.69596,4.102592 a 38.999999,38.999999 0 0 0 -1.87792,-3.660242 c 3.09746,-2.890845 2.14821,-8.098232 -1.91203,-9.642822 -1.22125,1.292721 -1.73972,3.010802 -1.54202,4.668449 a 38.999999,38.999999 0 0 0 -2.76728,-3.04736 c 2.2545,-3.595177 -0.0109,-8.3879215 -4.33668,-8.8294345 -0.83492,1.5459855 -0.89824,3.3147635 -0.3018,4.8518995 a 38.999999,38.999999 0 0 0 -3.42769,-2.218469 c 1.12737,-3.7776895 -1.78706,-7.5284725 -5.666323,-7.4352035 z"
       id="path1067-9-0"
       inkscape:connector-curvature="0"
       inkscape:transform-center-x="-22.480282"
       inkscape:transform-center-y="-20.621879" />
    <path
       style="display:inline;opacity:1;fill:#872902;fill-opacity:1;stroke:none;stroke-width:0.79186249;stroke-miterlimit:4;stroke-dasharray:none;stroke-opacity:1"
       d="m 7.5585938,170.07812 c 0.060231,12.62505 1.59139,25.20009 4.5625002,37.47071 l 18.917968,-2.20899 c 2.586513,10.23914 6.294479,20.16176 11.056641,29.58789 L 26.355469,245.7207 c 5.892576,11.18446 13.070009,21.6432 21.386719,31.16407 l 15.722656,-10.78125 c 7.072975,7.84623 14.990008,14.88817 23.607422,20.99804 l -8.865235,16.82813 c 10.394137,7.19489 21.592239,13.15248 33.367189,17.75195 l 8.89844,-16.89062 c 9.92787,3.63365 20.22659,6.16002 30.70898,7.5332 v 18.96875 c 6.26811,0.8019 12.57765,1.23754 18.89648,1.30469 6.31778,-0.0379 12.62797,-0.44421 18.89844,-1.2168 V 312.3418 c 10.47472,-1.40008 20.76292,-3.95199 30.67774,-7.60938 l 8.85547,16.8086 c 11.81323,-4.49964 23.06115,-10.36219 33.51562,-17.46875 l -8.89648,-16.88868 c 8.60968,-6.13504 16.51565,-13.20194 23.57421,-21.07226 l 15.64258,10.72656 c 8.33995,-9.5004 15.54295,-19.94143 21.46289,-31.11133 l -15.60742,-10.70312 c 4.74723,-9.45603 8.43497,-19.4077 10.9961,-29.67383 l 18.82617,2.19727 c 2.97491,-12.26952 4.51,-24.8439 4.57422,-37.46876 -13.96154,0 -24.70105,0 -37.79493,0 1.1e-4,68.88355 -55.84106,124.72472 -124.72461,124.72461 -68.88354,1.1e-4 -124.724714,-55.84107 -124.724604,-124.72461 -12.86077,0 -26.604141,0 -37.7949222,0 z"
       id="rect846"
       inkscape:connector-curvature="0"
       sodipodi:nodetypes="ccccccccccccccccccccccccccccccc"
       transform="scale(0.26458333)" />
  </g>
</svg>
